<?xml version="1.0" encoding="UTF-8" standalone="no"?>
<!-- Created with Inkscape (http://www.inkscape.org/) -->

<svg
   version="1.1"
   id="svg2"
   width="5163.96"
   height="5163.96"
   viewBox="0 0 5163.96 5163.96"
   sodipodi:docname="vecteezy_scanning-vector-icon-design_26255133.eps"
   xmlns:inkscape="http://www.inkscape.org/namespaces/inkscape"
   xmlns:sodipodi="http://sodipodi.sourceforge.net/DTD/sodipodi-0.dtd"
   xmlns="http://www.w3.org/2000/svg"
   xmlns:svg="http://www.w3.org/2000/svg">
  <defs
     id="defs6" />
  <sodipodi:namedview
     id="namedview4"
     pagecolor="#ffffff"
     bordercolor="#000000"
     borderopacity="0.25"
     inkscape:showpageshadow="2"
     inkscape:pageopacity="0.0"
     inkscape:pagecheckerboard="0"
     inkscape:deskcolor="#d1d1d1" />
  <g
     id="g8"
     inkscape:groupmode="layer"
     inkscape:label="ink_ext_XXXXXX"
     transform="matrix(1.3333333,0,0,-1.3333333,0,5163.96)">
    <g
       id="g10"
       transform="scale(0.1)">
      <path
         d="m 38729.7,19364.9 c 0,10665.8 -8699.1,19364.8 -19364.9,19364.8 C 8699.09,38729.7 0,30030.7 0,19364.9 0,8699.1 8699.09,0 19364.8,0 30030.6,0 38729.7,8699.1 38729.7,19364.9"
         style="fill:#003333;fill-opacity:1;fill-rule:evenodd;stroke:none"
         id="path12" />
      <path
         d="m 37439.3,19364.9 c 0,9954.9 -8119.6,18074.3 -18074.5,18074.3 -9954.88,0 -18074.22,-8119.4 -18074.22,-18074.3 0,-9954.9 8119.34,-18074.3 18074.22,-18074.3 9954.9,0 18074.5,8119.4 18074.5,18074.3"
         style="fill:#ffffff;fill-opacity:1;fill-rule:evenodd;stroke:none"
         id="path14" />
      <path
         d="m 9058.39,28206.5 c -182.21,0 -329.95,147.6 -329.95,329.8 v 2802.8 c 0,182.1 147.74,329.9 329.95,329.9 h 2802.51 c 182.1,0 329.8,-147.8 329.8,-329.9 0,-182.2 -147.7,-329.9 -329.8,-329.9 H 9388.26 v -2472.9 c 0,-182.2 -147.75,-329.8 -329.87,-329.8"
         style="fill:#003333;fill-opacity:1;fill-rule:evenodd;stroke:none"
         id="path16" />
      <path
         d="m 31428.3,28206.5 c -182.2,0 -329.8,147.6 -329.8,329.8 v 2472.9 h -2472.8 c -182.2,0 -329.9,147.7 -329.9,329.9 0,182.1 147.7,329.9 329.9,329.9 h 2802.4 c 182.2,0 330,-147.8 330,-329.9 v -2802.8 c 0.2,-182.2 -147.6,-329.8 -329.8,-329.8"
         style="fill:#003333;fill-opacity:1;fill-rule:evenodd;stroke:none"
         id="path18" />
      <path
         d="M 11861,7060.9 H 9058.49 c -182.22,0 -329.86,147.5 -329.86,329.7 v 2802.8 c 0,182.2 147.64,329.8 329.86,329.8 182.22,0 329.86,-147.6 329.86,-329.8 v -2473 H 11861 c 182.2,0 329.8,-147.7 329.8,-329.8 0,-182.2 -147.8,-329.7 -329.8,-329.7"
         style="fill:#003333;fill-opacity:1;fill-rule:evenodd;stroke:none"
         id="path20" />
      <path
         d="m 31428.3,7060.9 h -2802.4 c -182.2,0 -329.9,147.5 -329.9,329.7 0,182.2 147.7,330 329.9,330 h 2472.8 v 2472.8 c 0,182.2 147.6,329.8 329.8,329.8 182.2,0 330,-147.6 330,-329.8 V 7390.6 c -0.2,-182.2 -148,-329.7 -330.2,-329.7"
         style="fill:#003333;fill-opacity:1;fill-rule:evenodd;stroke:none"
         id="path22" />
      <path
         d="M 12417.9,18754.4 H 26312.1 V 29017.1 H 15861.9 v -3556.2 c 0,-182.2 -147.6,-329.8 -329.8,-329.8 H 12417.9 Z M 26642,18094.7 H 12087.9 c -182.1,0 -329.8,147.7 -329.8,329.8 v 7036.2 c 0,182.2 147.7,329.9 329.8,329.9 h 3114.3 v 3556.2 c 0,182.1 147.7,329.8 329.9,329.8 l 11109.9,-0.1 c 182.2,0 329.8,-147.6 329.8,-329.8 V 18424.3 c -0.2,-181.9 -147.8,-329.6 -329.8,-329.6 z M 12417.9,9712.8 h 13894.2 v 6982.7 H 12417.9 V 9712.8 Z M 26642,9053 H 12087.9 c -182.1,0 -329.8,147.6 -329.8,329.8 v 7642.4 c 0,182.2 147.7,329.8 329.8,329.8 H 26642 c 182.2,0 329.8,-147.6 329.8,-329.8 V 9382.8 C 26971.6,9200.6 26824,9053 26642,9053 v 0"
         style="fill:#003333;fill-opacity:1;fill-rule:evenodd;stroke:none"
         id="path24" />
      <path
         d="m 7631,17355 h 22875.8 v 739.9 H 7631 Z m 23205.5,-659.7 H 7301.14 c -182.21,0 -329.86,147.7 -329.86,329.9 v 1399.3 c 0,182.4 147.65,329.9 329.86,329.9 H 30836.5 c 182.3,0 330,-147.5 330,-329.9 v -1399.3 c -0.2,-182.2 -147.7,-329.9 -330,-329.9 v 0"
         style="fill:#7dd63e;fill-opacity:1;fill-rule:evenodd;stroke:none"
         id="path26" />
      <path
         d="m 12821.1,25790.8 h 2381 v 2686.6 z m 2710.9,-659.9 h -3444.2 c -129.8,0 -247.6,76.2 -300.8,194.6 -53.2,118.3 -32.2,257 54,354.2 l 3444.3,3886.1 c 90.8,102.5 235.9,138.3 363.8,89.7 128.2,-48.6 212.7,-171.4 212.7,-308.4 v -3886.2 c 0.1,-182.2 -147.7,-330 -329.8,-330 v 0"
         style="fill:#003333;fill-opacity:1;fill-rule:evenodd;stroke:none"
         id="path28" />
      <path
         d="m 16360.9,22605.5 h -1290.8 c -182.2,0 -329.8,147.6 -329.8,329.8 0,182.2 147.6,329.9 329.8,329.9 h 1290.8 c 182.1,0 329.9,-147.7 329.9,-329.9 0,-182.2 -147.9,-329.8 -329.9,-329.8 z m 7298.9,0 h -5110.3 c -182.2,0 -329.9,147.6 -329.9,329.8 0,182.2 147.7,329.9 329.9,329.9 h 5110.3 c 182.2,0 330,-147.7 330,-329.9 0,-182.2 -147.8,-329.8 -330,-329.8 v 0"
         style="fill:#7dd63e;fill-opacity:1;fill-rule:evenodd;stroke:none"
         id="path30" />
      <path
         d="m 18773.8,19848.7 h -3703.7 c -182.2,0 -329.8,147.6 -329.8,329.8 0,182.2 147.6,329.9 329.8,329.9 h 3703.7 c 182.3,0 329.9,-147.7 329.9,-329.9 0,-182.2 -147.6,-329.8 -329.9,-329.8 z m 4886,0 h -2697.2 c -182.2,0 -329.9,147.6 -329.9,329.8 0,182.2 147.7,329.9 329.9,329.9 h 2697.2 c 182.2,0 330,-147.7 330,-329.9 0,-182.2 -147.8,-329.8 -330,-329.8 v 0"
         style="fill:#7dd63e;fill-opacity:1;fill-rule:evenodd;stroke:none"
         id="path32" />
      <path
         d="m 15799.8,14335.3 h -729.7 c -182.2,0 -329.8,147.8 -329.8,330 0,182.2 147.6,329.7 329.8,329.7 h 729.7 c 182.2,0 329.8,-147.5 329.8,-329.7 0,-182.2 -147.6,-330 -329.8,-330 z m 7860,0 h -5671.5 c -182.3,0 -329.9,147.8 -329.9,330 0,182.2 147.6,329.7 329.9,329.7 h 5671.5 c 182.2,0 330,-147.5 330,-329.7 0,-182.2 -147.8,-330 -330,-330 v 0"
         style="fill:#7dd63e;fill-opacity:1;fill-rule:evenodd;stroke:none"
         id="path34" />
      <path
         d="m 20172.1,11578.7 h -5102 c -182.2,0 -329.8,147.7 -329.8,329.7 0,182.2 147.6,330 329.8,330 h 5102 c 182.2,0 329.8,-147.8 329.8,-330 0,-182 -147.6,-329.7 -329.8,-329.7 z m 3487.7,0 h -1299 c -182.2,0 -329.9,147.7 -329.9,329.7 0,182.2 147.7,330 329.9,330 h 1299 c 182.2,0 330,-147.8 330,-330 0,-182 -147.8,-329.7 -330,-329.7 v 0"
         style="fill:#7dd63e;fill-opacity:1;fill-rule:evenodd;stroke:none"
         id="path36" />
    </g>
  </g>
</svg>
